<?xml version="1.0" encoding="UTF-8"?>
<svg width="861px" height="1655px" viewBox="0 0 861 1655" version="1.1" xmlns="http://www.w3.org/2000/svg" xmlns:xlink="http://www.w3.org/1999/xlink">
    <title>iframe-frame</title>
    <g id="iframe-frame" stroke="none" stroke-width="1" fill="none" fill-rule="evenodd">
        <path d="M713,16 C777.617316,16 830,68.3826843 830,133 L830,384 L833,384 C836.313708,384 839,386.686292 839,390 L839,565 C839,568.313708 836.313708,571 833,571 L830,571 L830,1517 C830,1581.61732 777.617316,1634 713,1634 L152,1634 C87.3826843,1634 35,1581.61732 35,1517 L35,612 L34,612 C30.6862915,612 28,609.313708 28,606 L28,497 C28,493.686292 30.6862915,491 34,491 L35,491 L35,465 L34,465 C30.6862915,465 28,462.313708 28,459 L28,350 C28,346.686292 30.6862915,344 34,344 L35,344 L35,291 L34,291 C30.6862915,291 28,288.313708 28,285 L28,232 C28,228.686292 30.6862915,226 34,226 L35,226 L35,133 C35,68.3826843 87.3826843,16 152,16 L713,16 Z M243,59 L156,59 C116.633143,59 84.6454629,90.5940116 84.0096459,129.809348 L84,131 L84,1510 C84,1549.36686 115.594012,1581.35454 154.809348,1581.99035 L156,1582 L718,1582 C757.366857,1582 789.354537,1550.40599 789.990354,1511.19065 L790,1510 L790,131 C790,91.235498 757.764502,59 718,59 L636,59 L636,70 C636,94.8528137 615.852814,115 591,115 L288,115 C263.147186,115 243,94.8528137 243,70 L243,59 Z M514,60 C508.477153,60 504,64.4771525 504,70 C504,75.5228475 508.477153,80 514,80 C519.522847,80 524,75.5228475 524,70 C524,64.4771525 519.522847,60 514,60 Z M479,64 L389,64 C385.686292,64 383,66.6862915 383,70 C383,73.3137085 385.686292,76 389,76 L389,76 L479,76 C482.313708,76 485,73.3137085 485,70 C485,66.6862915 482.313708,64 479,64 L479,64 Z" id="iphone-frame" fill="#FF0000"></path>
    </g>
</svg>